<?xml version="1.0" standalone="no"?>
<!DOCTYPE svg PUBLIC "-//W3C//DTD SVG 20010904//EN"
 "http://www.w3.org/TR/2001/REC-SVG-20010904/DTD/svg10.dtd">
<svg version="1.0" xmlns="http://www.w3.org/2000/svg"
 width="180.000000pt" height="180.000000pt" viewBox="0 0 180.000000 180.000000"
 preserveAspectRatio="xMidYMid meet">
<metadata>
Created by potrace 1.16, written by Peter Selinger 2001-2019
</metadata>
<g transform="translate(0.000000,180.000000) scale(0.100000,-0.100000)"
fill="#FF0000" stroke="none">
<path d="M947 1783 c-4 -3 -7 -22 -7 -40 0 -32 -4 -36 -62 -63 -35 -17 -69
-30 -76 -30 -7 0 -57 -44 -111 -97 -132 -132 -170 -214 -171 -366 0 -83 28
-169 71 -213 33 -34 33 -39 -14 -104 -26 -36 -118 -130 -127 -130 -8 0 -96
-56 -134 -85 -39 -29 -129 -50 -219 -50 -48 0 -87 -2 -87 -5 0 -3 21 -17 47
-30 27 -14 49 -28 51 -32 2 -5 10 -8 18 -8 23 0 16 -17 -20 -47 -19 -15 -48
-54 -65 -86 l-31 -58 32 18 c18 9 58 20 88 23 30 4 63 10 73 15 16 6 17 3 13
-31 -3 -22 -8 -68 -11 -104 l-6 -65 80 85 80 85 0 -102 c-1 -120 6 -141 32
-90 19 36 85 95 95 84 3 -3 0 -15 -6 -27 -16 -29 -7 -83 26 -166 28 -69 35
-71 53 -12 7 20 29 54 50 76 20 21 70 74 110 117 93 100 250 245 266 245 6 0
36 25 66 55 l55 56 37 -16 c67 -28 169 -9 243 45 25 18 124 140 124 153 0 5
13 24 28 41 16 18 48 77 71 132 24 54 48 105 54 112 5 7 32 12 61 12 62 0 79
10 74 41 -4 29 -41 38 -64 15 -15 -16 -34 -21 -34 -10 0 3 16 21 36 39 20 19
34 40 31 47 -7 22 -60 11 -80 -17 -27 -36 -38 -31 -23 13 19 57 5 88 -30 64
-16 -11 -34 -48 -34 -71 0 -12 -4 -21 -10 -21 -5 0 -10 6 -10 14 0 21 -28 46
-45 40 -18 -7 -19 -31 -2 -48 6 -8 23 -26 36 -41 l24 -28 -18 -55 c-18 -57
-107 -236 -131 -263 -8 -8 -14 -20 -14 -25 0 -12 -63 -73 -104 -100 -16 -10
-40 -27 -55 -36 -24 -17 -131 -26 -131 -12 0 12 21 43 51 75 38 40 91 152 109
228 8 33 11 87 7 140 -15 252 -180 421 -373 382 -116 -23 -167 -83 -209 -247
-38 -147 -65 -224 -79 -224 -35 0 -86 110 -86 183 0 69 44 203 76 232 6 6 32
38 59 72 43 57 103 113 120 113 4 0 26 14 49 30 45 33 102 47 125 31 12 -8 13
-12 1 -25 -11 -14 -10 -20 5 -36 22 -25 41 -25 53 -2 11 20 5 43 -17 59 -14
11 -12 12 10 13 29 0 54 23 44 40 -3 5 -18 7 -32 4 -26 -7 -26 -7 -10 17 10
13 17 32 17 42 0 26 -42 18 -55 -10 -13 -30 -39 -31 -32 -2 9 34 -8 61 -26 42z
m-8 -502 c19 -12 26 -92 11 -135 -34 -104 -144 -156 -187 -89 -35 52 -12 127
56 181 58 47 94 60 120 43z m163 -113 c8 -7 25 -42 38 -78 13 -36 27 -69 32
-74 11 -13 10 -96 -1 -96 -5 0 -11 -9 -14 -20 -7 -26 -49 -44 -82 -36 -32 8
-53 53 -62 135 -6 60 8 144 29 168 13 16 40 17 60 1z m-194 -230 c26 -26 2
-157 -37 -202 -41 -48 -131 -61 -156 -22 -25 37 -4 70 59 93 49 18 51 20 61
68 6 28 14 56 18 63 10 15 39 16 55 0z"/>
</g>
</svg>
